<?xml version="1.0" encoding="utf-8"?>
<!-- Generator: Adobe Illustrator 16.0.0, SVG Export Plug-In . SVG Version: 6.00 Build 0)  -->
<!DOCTYPE svg PUBLIC "-//W3C//DTD SVG 1.1//EN" "http://www.w3.org/Graphics/SVG/1.1/DTD/svg11.dtd">
<svg version="1.1" id="Layer_1" xmlns="http://www.w3.org/2000/svg" xmlns:xlink="http://www.w3.org/1999/xlink" x="0px" y="0px"
	 width="615.697px" height="99.816px" viewBox="13.839 0 615.697 99.816" enable-background="new 13.839 0 615.697 99.816"
	 xml:space="preserve">
<g>
	<path fill="#222221" d="M225.06,65.448h-9.854c0-5.916-0.008-57.943-0.008-58.127c0-3.221-2.626-5.837-5.846-5.837h-13.727
		c-3.22,0-5.845,2.617-5.845,5.837c0,3.225,2.625,5.844,5.845,5.844h7.89v52.283h-6.977c-3.225,0-5.846,2.618-5.846,5.832
		c0,3.225,2.621,5.84,5.846,5.84h28.521c3.219,0,5.841-2.615,5.841-5.84C230.9,68.067,228.278,65.448,225.06,65.448z"/>
	<path fill="#222221" d="M599.985,21.188c-16.264,0-29.514,13.011-29.514,29.007c0,15.995,13.25,28.994,29.514,28.994
		c7.939,0,15.379-2.973,20.93-8.365c5.559-5.404,8.621-12.642,8.621-20.38C629.536,34.311,616.283,21.188,599.985,21.188z
		 M599.985,32.775c10.057,0,18.235,7.926,18.235,17.67c0,9.625-8.015,17.163-18.235,17.163c-10.039,0-18.193-7.809-18.193-17.412
		C581.792,40.591,589.946,32.775,599.985,32.775z"/>
	<path fill="#222221" d="M481.134,65.444h-0.059h-7.438l-0.022-28.613c-0.009-5.527-0.009-9.512-0.009-9.557
		c0-3.219-2.617-5.841-5.839-5.841h-12.556c-3.227,0-5.85,2.622-5.85,5.841c0,3.226,2.623,5.849,5.85,5.849h6.742v32.32H451.74
		c-3.219,0-5.841,2.623-5.841,5.842c0,3.215,2.622,5.83,5.841,5.83h16.477c0.023,0,0.046,0.005,0.062,0.005h12.855
		c3.226,0,5.847-2.62,5.847-5.835C486.98,68.067,484.359,65.444,481.134,65.444z"/>
	<path fill="#222221" d="M430.534,32.563c3.189,0,5.79-2.603,5.79-5.791c0-3.195-2.601-5.795-5.79-5.795
		c-6.991,0-13.219,2.217-18.546,6.593c0-0.056,0-0.099,0-0.126c0-3.22-2.621-5.842-5.841-5.842h-13.366
		c-3.223,0-5.845,2.622-5.845,5.842c0,3.221,2.622,5.835,5.845,5.835h7.517l-0.131,32.16h-7.741c-3.227,0-5.849,2.618-5.849,5.847
		c0,3.215,2.622,5.835,5.849,5.835h33.709c3.224,0,5.844-2.62,5.844-5.835c0-3.229-2.62-5.847-5.844-5.847h-14.211V48.557
		C412.21,42.618,416.45,32.563,430.534,32.563z"/>
	<path fill="#222221" d="M174.75,65.637h-3.33c-0.014-3.505,0.042-18.152,0.071-21.54l0.009-0.758
		c0-12.956-9.408-21.662-23.401-21.662c-10.727,0-19.731,2.816-19.816,2.844c-1.464,0.448-2.663,1.438-3.381,2.789
		c-0.712,1.352-0.86,2.9-0.411,4.361c0.742,2.415,2.944,4.042,5.472,4.042c0.568,0,1.137-0.087,1.684-0.256
		c0.313-0.093,7.788-2.33,16.453-2.33c7.487,0,11.953,3.811,11.953,10.191l-0.004,0.671c0,0.173-0.004,0.354-0.004,0.53
		c-6.316-2.703-11.855-3.285-15.444-3.285c-13.628,0-24.301,8.1-24.301,18.44c0,11.16,9.498,18.946,23.096,18.946
		c6.469,0,12.318-2.297,16.971-6.646c0.038,0.18,0.081,0.346,0.128,0.504c0.479,2.805,2.894,4.842,5.751,4.842h8.506
		c3.224,0,5.844-2.623,5.844-5.843C180.594,68.258,177.974,65.637,174.75,65.637z M144.6,52.824c3.296,0,8.425,0.71,14.282,4.031
		c-0.153,0.334-0.311,0.666-0.479,0.984c-1.463,2.766-5.857,9.197-15.008,9.197c-1.713,0-4.538-0.35-6.875-1.329
		c-3.07-1.284-4.632-3.32-4.632-6.034C131.888,55.756,138.603,52.824,144.6,52.824z"/>
	<path fill="#222221" d="M293.92,65.637h-3.327c-0.021-3.505,0.038-18.152,0.073-21.54l0.003-0.758
		c0-12.956-9.403-21.662-23.4-21.662c-10.728,0-19.732,2.816-19.817,2.844c-1.464,0.448-2.664,1.438-3.381,2.789
		c-0.713,1.352-0.857,2.9-0.411,4.361c0.743,2.415,2.94,4.042,5.472,4.042c0.568,0,1.132-0.087,1.684-0.256
		c0.31-0.093,7.788-2.33,16.454-2.33c7.485,0,11.956,3.811,11.956,10.191l-0.009,0.671c-0.003,0.173-0.003,0.354-0.003,0.53
		c-6.321-2.703-11.856-3.285-15.443-3.285c-13.63,0-24.297,8.1-24.297,18.44c0,11.16,9.493,18.946,23.092,18.946
		c6.468,0,12.316-2.297,16.971-6.646c0.043,0.18,0.081,0.346,0.126,0.504c0.484,2.805,2.897,4.842,5.753,4.842h8.506
		c3.223,0,5.848-2.623,5.848-5.843C299.768,68.258,297.143,65.637,293.92,65.637z M263.77,52.824c3.3,0,8.418,0.71,14.281,4.031
		c-0.153,0.334-0.311,0.666-0.48,0.984c-1.463,2.766-5.86,9.197-15.006,9.197c-1.714,0-4.543-0.35-6.876-1.329
		c-3.071-1.284-4.632-3.32-4.632-6.034C251.057,55.756,257.771,52.824,263.77,52.824z"/>
	<path fill="#222221" d="M557.634,21.815h-11.482c-2.503,0-4.708,1.609-5.503,3.922c-4.619-2.925-10.084-4.466-15.837-4.466
		c-16.479,0-28.906,12.447-28.906,28.963c0,16.505,12.428,28.948,28.906,28.948c6.479,0,12.479-1.913,17.413-5.544
		c0,0.168-0.014,0.381-0.031,0.627c-0.348,5.677-2.069,9.496-5.264,11.687c-2.388,1.632-5.739,2.467-9.955,2.467
		c-6.418,0-13.076-1.933-16-3.072c-0.669-0.258-1.373-0.391-2.094-0.391c-2.393,0-4.501,1.438-5.367,3.664
		c-1.153,2.956,0.307,6.304,3.255,7.46c0.403,0.158,9.903,3.834,20.186,3.834c6.605,0,12.139-1.488,16.457-4.433
		c6.35-4.323,9.819-11.377,10.316-20.932c0.207-2.283,0.079-36.151,0.067-41.098h3.839c3.207,0,5.815-2.607,5.815-5.816
		C563.449,24.427,560.841,21.815,557.634,21.815z M524.812,32.842c9.776,0,16.911,6.771,17.344,16.443l0.005,1.871
		c-0.438,9.691-7.572,16.459-17.349,16.459c-10.073,0-17.374-7.307-17.374-17.38C507.438,40.157,514.738,32.842,524.812,32.842z"/>
	<path fill="#222221" d="M105.861,65.441h-3.559V42.795c-0.018-6.307-1.947-11.305-5.71-14.825
		c-0.759-0.841-1.646-1.604-2.638-2.273c-4.323-2.913-9.674-4.386-15.91-4.386c-7.791,0-14.408,2.295-17.137,3.399
		c-3.786-2.349-7.562-3.491-11.533-3.491c-3.035,0-6.201,0.668-9.697,2.058c-0.919,0.42-1.76,0.952-2.498,1.581
		c-0.96-2.015-2.985-3.32-5.272-3.32H19.679c-3.221,0-5.84,2.62-5.84,5.845c0,3.221,2.619,5.844,5.84,5.844h6.264v32.167h-6.087
		c-3.144,0-5.703,2.621-5.703,5.84s2.56,5.835,5.703,5.835H43.15c3.146,0,5.703-2.616,5.703-5.835s-2.558-5.84-5.703-5.84h-5.519
		V34.289c0.689-0.169,1.325-0.329,1.932-0.488c2.762-0.709,4.758-1.225,7.802-1.225c9.14,0,10.747,4.818,11.125,9.982
		c0,0,0.015,28.648,0.015,28.721c0,3.22,2.598,5.84,5.788,5.84h9.405c3.188,0,5.788-2.62,5.788-5.84c0-3.219-2.601-5.84-5.788-5.84
		h-3.522V42.795c-0.009-3.167-0.515-6.047-1.503-8.57c0.375-0.104,0.743-0.208,1.104-0.312c3.228-0.914,5.776-1.636,8.984-1.636
		c6.819,0,11.143,3.762,11.859,10.317c0.017,10.483,0.063,27.88,0.148,29.227h-0.005c0.275,3.018,2.74,5.3,5.735,5.3h9.361
		c3.172,0,5.751-2.62,5.751-5.84C111.612,68.062,109.033,65.441,105.861,65.441z"/>
	<path fill="#222221" d="M349.576,21.377c-6.658,0-12.802,2.013-17.812,5.826V8.033c0-0.199-0.015-0.404-0.04-0.631
		c0.022-0.177,0.025-0.357,0.025-0.541c0-3.11-2.533-5.646-5.655-5.646h-12.288c-3.111,0-5.644,2.535-5.644,5.646
		c0,3.119,2.532,5.653,5.644,5.653h6.648v53.344h-5.82c-3.071,0-5.563,2.53-5.563,5.639c0,3.117,2.492,5.655,5.563,5.655h11.729
		c2.468,0,4.631-1.661,5.328-4.03c5.025,3.848,11.201,5.88,17.886,5.88c16.458,0,28.866-12.382,28.866-28.806
		C378.442,33.767,366.034,21.377,349.576,21.377z M349.576,67.802c-10.234,0-17.66-7.404-17.66-17.606
		c0-10.208,7.426-17.617,17.66-17.617c10.236,0,17.668,7.408,17.668,17.617C367.244,60.398,359.812,67.802,349.576,67.802z"/>
	<path fill="#222221" d="M474.569,8.249c0,4.56-3.703,8.256-8.258,8.256c-4.565,0-8.255-3.697-8.255-8.256
		c0-4.555,3.689-8.249,8.255-8.249C470.866,0,474.569,3.694,474.569,8.249"/>
</g>
</svg>
